<?xml version="1.0" encoding="UTF-8"?>
<!DOCTYPE svg  PUBLIC '-//W3C//DTD SVG 1.1//EN'  'http://www.w3.org/Graphics/SVG/1.1/DTD/svg11.dtd'>
<svg clip-rule="evenodd" fill-rule="evenodd" version="1.1" viewBox="0 0 348 348" xml:space="preserve" xmlns="http://www.w3.org/2000/svg">
    <path d="m5.078 5.776h336.91v337.67h-336.91l-1e-3 -337.67z" fill="none" stroke="#000" stroke-width="2px"/>
    <g transform="matrix(.90379 0 0 .90379 1.2871 6.4749)">
        <g transform="matrix(.24977 0 0 .24977 26.119 79.985)">
            <path d="m5.078 5.776h336.91v337.67h-336.91l-1e-3 -337.67z" fill="none" stroke="#000" stroke-width="8.86px"/>
        </g>
        <g transform="matrix(.24977 0 0 .24977 26.119 174.05)">
            <path d="m5.078 5.776h336.91v337.67h-336.91l-1e-3 -337.67z" fill="none" stroke="#000" stroke-width="8.86px"/>
        </g>
        <g transform="matrix(.24977 0 0 .24977 26.119 269.19)">
            <path d="m5.078 5.776h336.91v337.67h-336.91l-1e-3 -337.67z" fill="none" stroke="#000" stroke-width="8.86px"/>
        </g>
        <g transform="matrix(.24977 0 0 .24977 119.99 79.985)">
            <path d="m5.078 5.776h336.91v337.67h-336.91l-1e-3 -337.67z" fill="none" stroke="#000" stroke-width="8.86px"/>
        </g>
        <g transform="matrix(.24977 0 0 .24977 119.99 174.05)">
            <path d="m5.078 5.776h336.91v337.67h-336.91l-1e-3 -337.67z" fill="none" stroke="#000" stroke-width="8.86px"/>
        </g>
        <g transform="matrix(.24977 0 0 .24977 119.99 269.19)">
            <path d="m5.078 5.776h336.91v337.67h-336.91l-1e-3 -337.67z" fill="none" stroke="#000" stroke-width="8.86px"/>
        </g>
        <g transform="matrix(.24977 0 0 .24977 214.46 79.985)">
            <path d="m5.078 5.776h336.91v337.67h-336.91l-1e-3 -337.67z" fill="none" stroke="#000" stroke-width="8.86px"/>
        </g>
        <g transform="matrix(.24977 0 0 .24977 214.46 174.05)">
            <path d="m5.078 5.776h336.91v337.67h-336.91l-1e-3 -337.67z" fill="none" stroke="#000" stroke-width="8.86px"/>
        </g>
        <g transform="matrix(.24977 0 0 .24977 214.46 269.19)">
            <path d="m5.078 5.776h336.91v337.67h-336.91l-1e-3 -337.67z" fill="none" stroke="#000" stroke-width="8.86px"/>
        </g>
    </g>
    <g transform="matrix(50.152,0,0,50.152,49.122,133.71)">
        <path d="m0.167-0.52v0.43c0.019 0.011 0.038 0.019 0.058 0.026s0.042 0.01 0.065 0.01c0.047 0 0.083-0.014 0.108-0.041 0.024-0.027 0.036-0.062 0.036-0.105 0-0.027-6e-3 -0.053-0.018-0.077s-0.032-0.043-0.061-0.058c-0.03-0.014-0.07-0.02-0.121-0.018l-0.012-0.055c0.113-0.018 0.17-0.071 0.17-0.16 0-0.038-9e-3 -0.068-0.027-0.092-0.019-0.023-0.045-0.034-0.078-0.034-0.036 0-0.065 0.015-0.087 0.045-0.022 0.031-0.033 0.074-0.033 0.129zm-0.088 0.7 6e-3 -0.192v-0.484c0-0.05 9e-3 -0.093 0.028-0.13 0.018-0.036 0.043-0.064 0.076-0.084 0.032-0.019 0.068-0.029 0.109-0.029 0.033 0 0.063 7e-3 0.09 0.019 0.027 0.013 0.048 0.032 0.064 0.057 0.015 0.025 0.023 0.056 0.023 0.091 0 0.021-4e-3 0.044-0.012 0.067-9e-3 0.023-0.023 0.045-0.043 0.065s-0.048 0.036-0.083 0.049c0.057 9e-3 0.102 0.029 0.133 0.062s0.047 0.077 0.047 0.132c0 0.047-0.011 0.085-0.032 0.116-0.022 0.031-0.049 0.055-0.081 0.07-0.033 0.016-0.066 0.024-0.099 0.024-0.028 0-0.054-5e-3 -0.079-0.015-0.025-9e-3 -0.047-0.024-0.066-0.045l0.015 0.219-0.081 0.018-0.015-0.01z" fill-rule="nonzero"/>
    </g>
    <g transform="matrix(50.152,0,0,50.152,49.484,216.44)">
        <path d="m0.102 0.01-9e-3 -0.01 0.014-0.179 3e-3 -0.191c0-0.015-2e-3 -0.027-7e-3 -0.036-6e-3 -8e-3 -0.015-0.012-0.03-0.012-7e-3 0-0.013 0-0.02 1e-3s-0.013 2e-3 -0.019 3e-3l-0.011-0.03c0.01-0.013 0.021-0.023 0.034-0.03s0.027-0.011 0.044-0.011c0.032 0 0.054 0.01 0.066 0.03 0.011 0.021 0.016 0.051 0.015 0.09l-4e-3 0.159c0.025-0.049 0.055-0.095 0.088-0.137 0.033-0.041 0.064-0.074 0.093-0.097 0.02-0.015 0.038-0.027 0.054-0.035 0.015-7e-3 0.032-0.012 0.049-0.014 0.011 3e-3 0.021 7e-3 0.028 0.014s0.011 0.018 0.011 0.031c0 0.018-7e-3 0.031-0.021 0.04s-0.034 0.015-0.059 0.016l-0.056 3e-3c-0.017 0.014-0.032 0.029-0.047 0.044s-0.031 0.031-0.046 0.048c0.027 0.05 0.05 0.09 0.069 0.119 0.019 0.03 0.034 0.053 0.047 0.068 0.012 0.015 0.023 0.025 0.032 0.03 8e-3 5e-3 0.017 8e-3 0.026 8e-3 0.022 0 0.039-2e-3 0.05-7e-3l8e-3 0.026c-7e-3 0.019-0.018 0.034-0.032 0.045-0.014 0.012-0.029 0.017-0.044 0.017-0.011 0-0.021-3e-3 -0.032-9e-3s-0.024-0.018-0.037-0.036c-0.014-0.017-0.03-0.044-0.049-0.079s-0.042-0.081-0.069-0.138c-0.011 0.018-0.021 0.035-0.032 0.052s-0.023 0.035-0.034 0.055c-1e-3 0.024-2e-3 0.048-3e-3 0.071-1e-3 0.024-3e-3 0.048-4e-3 0.071l-0.066 0.01z" fill-rule="nonzero"/>
    </g>
    <g transform="matrix(50.152,0,0,50.152,49.122,306.39)">
        <path d="m0.044 0-0.01-0.188h0.061l0.023 0.111h0.357l0.024-0.111h0.06l-0.01 0.188h-0.505zm0.375-0.233-0.012-0.079h-0.22l-0.012 0.079h-0.046v-0.216h0.046l0.012 0.078h0.22l0.012-0.078h0.046v0.216h-0.046zm-0.373-0.257 8e-3 -0.179h0.485l8e-3 0.179h-0.056l-0.018-0.102h-0.352l-0.018 0.102h-0.057z" fill-rule="nonzero"/>
    </g>
    <g transform="matrix(50.152,0,0,50.152,134.41,133.71)">
        <path d="m0.026 0v-0.042l0.237-0.632h0.063l0.236 0.632v0.042h-0.536zm0.063-0.081h0.36l-0.179-0.485-0.181 0.485z" fill-rule="nonzero"/>
    </g>
    <g transform="matrix(50.152,0,0,50.152,134.24,215.09)">
        <path d="m0.079 0.18 0.021-0.282-0.015-0.367 0.085-0.019 0.011 0.01c-3e-3 0.055-5e-3 0.103-8e-3 0.143s-5e-3 0.075-7e-3 0.105-3e-3 0.058-4e-3 0.083c0.015 0.033 0.033 0.055 0.052 0.066s0.038 0.017 0.057 0.017c0.025 0 0.048-7e-3 0.068-0.021 0.019-0.014 0.037-0.042 0.054-0.085l-6e-3 -0.299 0.086-0.019 0.01 0.01c-5e-3 0.067-0.01 0.121-0.013 0.163-4e-3 0.042-7e-3 0.076-8e-3 0.103-2e-3 0.027-3e-3 0.053-2e-3 0.076 1e-3 0.031 5e-3 0.052 0.011 0.063s0.017 0.017 0.034 0.017c7e-3 0 0.014-1e-3 0.021-3e-3 7e-3 -1e-3 0.014-3e-3 0.02-6e-3l9e-3 0.025c-8e-3 0.015-0.019 0.027-0.033 0.037-0.014 0.011-0.031 0.016-0.051 0.016-0.027 0-0.045-0.01-0.056-0.03s-0.017-0.048-0.02-0.085c-0.017 0.041-0.036 0.07-0.059 0.088s-0.048 0.027-0.075 0.027c-0.019 0-0.039-6e-3 -0.06-0.02-0.021-0.013-0.039-0.032-0.052-0.057l0.025 0.236-0.083 0.018-0.012-0.01z" fill-rule="nonzero"/>
        <g transform="matrix(.018564 0 0 .018564 1.0059 -1.0376)">
            <text x="39.64px" y="62.587px" font-family="'SourceSerifPro-Regular', 'Source Serif Pro', serif" font-size="54.617px">ξ</text>
        </g>
    </g>
    <g transform="matrix(50.152,0,0,50.152,135.23,303.78)">
        <path d="m0.26 0.013c-0.045 0-0.083-0.01-0.116-0.029s-0.059-0.047-0.077-0.083c-0.019-0.035-0.028-0.077-0.028-0.124 0-0.057 0.012-0.104 0.035-0.141s0.055-0.064 0.096-0.084c0.041-0.019 0.086-0.028 0.137-0.029l0.264-6e-3 4e-3 0.08-0.2-0.016c0.037 0.019 0.064 0.045 0.081 0.08 0.016 0.035 0.025 0.072 0.025 0.111 0 0.046-0.01 0.087-0.028 0.123-0.019 0.037-0.046 0.065-0.079 0.086-0.033 0.022-0.071 0.032-0.114 0.032zm-0.133-0.236c0 0.062 0.013 0.109 0.038 0.141 0.025 0.033 0.058 0.049 0.098 0.049 0.039 0 0.072-0.016 0.097-0.049s0.038-0.084 0.038-0.153c0-0.027-3e-3 -0.054-9e-3 -0.08-6e-3 -0.025-0.016-0.048-0.031-0.068s-0.037-0.034-0.065-0.043c-0.053 4e-3 -0.093 0.023-0.122 0.057-0.03 0.034-0.044 0.083-0.044 0.146z" fill-rule="nonzero"/>
    </g>
    <g transform="matrix(50.152,0,0,50.152,219.83,131.83)">
        <path d="m0.027-0.385-8e-3 -0.037c0.017-0.013 0.033-0.024 0.05-0.032 0.016-7e-3 0.035-0.013 0.057-0.016s0.05-5e-3 0.085-5e-3h0.35l4e-3 0.072-0.129-4e-3 8e-3 0.267c1e-3 0.033 7e-3 0.056 0.017 0.067s0.025 0.017 0.044 0.017c7e-3 0 0.014-1e-3 0.022-3e-3 8e-3 -1e-3 0.015-3e-3 0.022-6e-3l8e-3 0.025c-0.012 0.018-0.025 0.031-0.038 0.04-0.014 9e-3 -0.031 0.013-0.051 0.013-0.035 0-0.06-0.01-0.076-0.031-0.017-0.02-0.025-0.051-0.025-0.092s1e-3 -0.089 4e-3 -0.142c2e-3 -0.053 4e-3 -0.105 7e-3 -0.156h-0.161c-1e-3 0.051-1e-3 0.101-2e-3 0.152s-4e-3 0.1-7e-3 0.149c-3e-3 0.043-0.014 0.073-0.031 0.092s-0.041 0.028-0.07 0.028c-0.018 0-0.033-4e-3 -0.044-0.014-0.011-9e-3 -0.017-0.021-0.017-0.036 0-0.012 2e-3 -0.021 6e-3 -0.029 3e-3 -7e-3 8e-3 -0.013 0.015-0.018 0.025-5e-3 0.055-9e-3 0.088-0.012 5e-3 -0.051 9e-3 -0.103 0.012-0.155 2e-3 -0.051 4e-3 -0.103 5e-3 -0.155l-0.145 0.021z" fill-rule="nonzero"/>
    </g>
    <g transform="matrix(50.152 0 0 50.152 218.87 306.96)">
        <path d="m0.044-0.628v-0.041h0.479l7e-3 0.198h-0.057l-0.027-0.148h-0.211c-1e-3 0.043-1e-3 0.086-1e-3 0.129-1e-3 0.043-1e-3 0.087-1e-3 0.131v0.05c0 0.043 0 0.085 1e-3 0.128 0 0.043 0 0.086 1e-3 0.129l0.093 0.011v0.041h-0.284v-0.041l0.092-0.011c1e-3 -0.042 2e-3 -0.085 2e-3 -0.128v-0.309c0-0.043-1e-3 -0.085-2e-3 -0.128l-0.092-0.011z" fill-rule="nonzero"/>
    </g>
    <path d="m282.73 40.554c0-8.376 6.966-15.165 15.56-15.165 4.126 0 8.084 1.597 11.001 4.441 2.918 2.844 4.558 6.702 4.558 10.724 0 8.376-6.966 15.165-15.56 15.165-8.593 0-15.559-6.79-15.559-15.165z" fill="none" stroke="#000" stroke-width="2px"/>
</svg>
